<svg width="18" height="18" viewBox="0 0 30 30" fill="none" xmlns="http://www.w3.org/2000/svg">
<path d="M15 0C6.71371 0 0 6.71371 0 15C0 23.2863 6.71371 30 15 30C23.2863 30 30 23.2863 30 15C30 6.71371 23.2863 0 15 0ZM15 27.0968C8.31653 27.0968 2.90323 21.6835 2.90323 15C2.90323 8.31653 8.31653 2.90323 15 2.90323C21.6835 2.90323 27.0968 8.31653 27.0968 15C27.0968 21.6835 21.6835 27.0968 15 27.0968ZM13.0645 7.98387V15H9.0121C8.36492 15 8.04435 15.7802 8.49798 16.2399L14.4859 22.2278C14.7702 22.5121 15.2298 22.5121 15.5141 22.2278L21.502 16.2399C21.9617 15.7802 21.6351 15 20.9879 15H16.9355V7.98387C16.9355 7.58468 16.6089 7.25806 16.2097 7.25806H13.7903C13.3911 7.25806 13.0645 7.58468 13.0645 7.98387Z" fill="white"/>
</svg>
