<svg width="18" height="18" viewBox="0 0 29 29" fill="none" xmlns="http://www.w3.org/2000/svg">
<path d="M12.2391 2.02499L13.6506 0.588916C14.2482 -0.0191503 15.2234 -0.0279964 15.8255 0.569187L28.4109 12.9118C29.0194 13.509 29.0283 14.4834 28.4306 15.085L16.0776 27.6539C15.48 28.2619 14.5048 28.2708 13.9027 27.6736L12.4654 26.2634C11.8504 25.6599 11.8542 24.6661 12.4711 24.0643L20.1291 16.6413L1.69002 16.8085C0.836718 16.8163 0.144002 16.1366 0.136268 15.284L0.11766 13.2326C0.109926 12.38 0.790197 11.6878 1.6435 11.6801L20.0826 11.5128L12.2848 4.22359C11.6506 3.6331 11.6288 2.63958 12.2391 2.02499Z" fill="white"/>
</svg>
