<svg width="106" height="79" viewBox="0 0 106 79" fill="none" xmlns="http://www.w3.org/2000/svg">
<g clip-path="url(#clip0)">
<path d="M84.525 29.2668L83.1716 31.4577C82.6764 32.2697 81.6201 32.6068 80.6792 32.2851C78.7316 31.6109 76.949 30.6457 75.381 29.4354C74.6217 28.8532 74.4236 27.8267 74.9188 27.03L76.2722 24.8391C75.1334 23.6134 74.2421 22.1886 73.6479 20.6412H70.9244C69.9341 20.6412 69.0758 19.9824 68.9108 19.0631C68.5806 17.2246 68.5641 15.2941 68.9108 13.379C69.0758 12.4598 69.9341 11.7856 70.9244 11.7856H73.6479C74.2421 10.2382 75.1334 8.81338 76.2722 7.58771L74.9188 5.39681C74.4236 4.60012 74.6052 3.57362 75.381 2.99142C76.949 1.78107 78.7481 0.815849 80.6792 0.141728C81.6201 -0.180012 82.6764 0.157048 83.1716 0.969059L84.525 3.15995C86.2581 2.86886 88.0242 2.86886 89.7573 3.15995L91.1108 0.969059C91.606 0.157048 92.6623 -0.180012 93.6031 0.141728C95.5508 0.815849 97.3334 1.78107 98.9014 2.99142C99.6607 3.57362 99.8588 4.60012 99.3636 5.39681L98.0101 7.58771C99.149 8.81338 100.04 10.2382 100.635 11.7856H103.358C104.348 11.7856 105.207 12.4444 105.372 13.3637C105.702 15.2022 105.718 17.1327 105.372 19.0478C105.207 19.967 104.348 20.6412 103.358 20.6412H100.635C100.04 22.1886 99.149 23.6134 98.0101 24.8391L99.3636 27.03C99.8588 27.8267 99.6772 28.8532 98.9014 29.4354C97.3334 30.6457 95.5343 31.6109 93.6031 32.2851C92.6623 32.6068 91.606 32.2697 91.1108 31.4577L89.7573 29.2668C88.0407 29.5579 86.2581 29.5579 84.525 29.2668ZM82.792 20.2581C89.1466 24.7931 96.3926 18.0672 91.5069 12.1687C85.1523 7.61835 77.9063 14.3596 82.792 20.2581ZM63.761 43.8371L69.3234 46.411C70.9905 47.2996 71.7167 49.1841 71.0565 50.8694C69.5875 54.577 66.699 57.9783 64.0251 60.9506C62.8037 62.3141 60.691 62.6512 59.0239 61.7626L54.2208 59.1886C51.5799 61.2876 48.5098 62.9576 45.1592 64.0454V69.1932C45.1592 70.9705 43.7892 72.5025 41.9076 72.809C37.8472 73.4524 33.5887 73.4831 29.3798 72.809C27.4817 72.5025 26.0787 70.9858 26.0787 69.1932V64.0454C22.7281 62.9423 19.658 61.2876 17.0171 59.1886L12.214 61.7472C10.5634 62.6359 8.43421 62.2988 7.21279 60.9352C4.53888 57.963 1.71642 54.5617 0.247425 50.8694C-0.412799 49.1994 0.313447 47.3149 1.98051 46.411L7.47688 43.8371C6.83316 40.635 6.83316 37.341 7.47688 34.1236L1.98051 31.5343C0.313447 30.6457 -0.429305 28.7613 0.247425 27.0913C1.71642 23.3836 4.53888 19.9824 7.21279 17.0101C8.43421 15.6465 10.5469 15.3095 12.214 16.1981L17.0171 18.772C19.658 16.673 22.7281 15.003 26.0787 13.9153V8.7521C26.0787 6.99019 27.4322 5.4581 29.3138 5.15168C33.3742 4.5082 37.6491 4.47756 41.8581 5.13636C43.7562 5.44277 45.1592 6.95955 45.1592 8.7521V13.8999C48.5098 15.003 51.5799 16.6577 54.2208 18.7567L59.0239 16.1828C60.6745 15.2941 62.8037 15.6312 64.0251 16.9948C66.699 19.967 69.505 23.3683 70.974 27.0759C71.6342 28.7459 70.9905 30.6304 69.3234 31.5343L63.761 34.1083C64.4047 37.3257 64.4047 40.6197 63.761 43.8371ZM44.3504 47.0698C54.1217 35.2727 39.6133 21.8055 26.904 30.8755C17.1327 42.6727 31.6411 56.1398 44.3504 47.0698ZM84.525 75.0611L83.1716 77.252C82.6764 78.064 81.6201 78.4011 80.6792 78.0794C78.7316 77.4053 76.949 76.44 75.381 75.2297C74.6217 74.6475 74.4236 73.621 74.9188 72.8243L76.2722 70.6334C75.1334 69.4077 74.2421 67.9829 73.6479 66.4355H70.9244C69.9341 66.4355 69.0758 65.7766 68.9108 64.8574C68.5806 63.0189 68.5641 61.0884 68.9108 59.1733C69.0758 58.2541 69.9341 57.5799 70.9244 57.5799H73.6479C74.2421 56.0325 75.1334 54.6077 76.2722 53.382L74.9188 51.1911C74.4236 50.3944 74.6052 49.3679 75.381 48.7857C76.949 47.5754 78.7481 46.6101 80.6792 45.936C81.6201 45.6143 82.6764 45.9514 83.1716 46.7634L84.525 48.9543C86.2581 48.6632 88.0242 48.6632 89.7573 48.9543L91.1108 46.7634C91.606 45.9514 92.6623 45.6143 93.6031 45.936C95.5508 46.6101 97.3334 47.5754 98.9014 48.7857C99.6607 49.3679 99.8588 50.3944 99.3636 51.1911L98.0101 53.382C99.149 54.6077 100.04 56.0325 100.635 57.5799H103.358C104.348 57.5799 105.207 58.2388 105.372 59.158C105.702 60.9965 105.718 62.927 105.372 64.8421C105.207 65.7613 104.348 66.4355 103.358 66.4355H100.635C100.04 67.9829 99.149 69.4077 98.0101 70.6334L99.3636 72.8243C99.8588 73.621 99.6772 74.6475 98.9014 75.2297C97.3334 76.44 95.5343 77.4053 93.6031 78.0794C92.6623 78.4011 91.606 78.064 91.1108 77.252L89.7573 75.0611C88.0407 75.3522 86.2581 75.3522 84.525 75.0611ZM82.792 66.0371C89.1466 70.5721 96.3926 63.8462 91.5069 57.9477C85.1523 53.4127 77.9063 60.1385 82.792 66.0371Z" fill="#D62828"/>
</g>
<defs>
<clipPath id="clip0">
<rect width="105.636" height="78.4432" fill="white"/>
</clipPath>
</defs>
</svg>
