<svg width="476" height="274" viewBox="0 0 484 292" fill="none" xmlns="http://www.w3.org/2000/svg">
<g clip-path="url(#clip0)">
<path d="M307.811 91.3544C308.724 81.9626 311.246 72.7778 315.275 64.1666C316.398 61.7702 317.634 59.4266 318.983 57.1357C319.051 57.0159 319.067 56.8757 319.028 56.7446C318.99 56.6135 318.9 56.5018 318.777 56.4331C318.654 56.3644 318.507 56.3441 318.369 56.3764C318.231 56.4086 318.111 56.491 318.035 56.6061C313.129 64.9501 309.692 74.0075 307.861 83.4163C307.352 86.0438 306.969 88.6898 306.713 91.3544C306.648 92.0265 307.747 92.0222 307.811 91.3544Z" fill="#E6E6E6"/>
<path d="M321.643 58.8185C325.485 58.8185 328.6 55.8433 328.6 52.1733C328.6 48.5032 325.485 45.528 321.643 45.528C317.801 45.528 314.687 48.5032 314.687 52.1733C314.687 55.8433 317.801 58.8185 321.643 58.8185Z" fill="#E6E6E6"/>
<path d="M308.523 91.5309C309.115 85.438 310.751 79.4794 313.365 73.8929C314.093 72.3383 314.895 70.8179 315.771 69.3317C315.814 69.2539 315.825 69.163 315.8 69.078C315.775 68.9929 315.716 68.9205 315.637 68.8759C315.557 68.8314 315.462 68.8182 315.372 68.8391C315.282 68.86 315.205 68.9135 315.155 68.9881C311.973 74.4012 309.743 80.2772 308.555 86.3811C308.225 88.0857 307.977 89.8023 307.81 91.5309C307.768 91.9669 308.481 91.9642 308.523 91.5309Z" fill="#E6E6E6"/>
<path d="M317.496 70.4234C319.989 70.4234 322.01 68.4932 322.01 66.1123C322.01 63.7313 319.989 61.8012 317.496 61.8012C315.004 61.8012 312.983 63.7313 312.983 66.1123C312.983 68.4932 315.004 70.4234 317.496 70.4234Z" fill="#E6E6E6"/>
<path d="M307.624 91.124C304.167 85.9719 301.621 80.3126 300.085 74.3719C299.658 72.7181 299.311 71.0481 299.045 69.3621C299.029 69.275 298.979 69.197 298.904 69.1447C298.83 69.0923 298.737 69.0696 298.646 69.0813C298.554 69.0931 298.471 69.1384 298.413 69.2077C298.356 69.277 298.329 69.3648 298.338 69.4527C299.314 75.5908 301.339 81.5339 304.333 87.0445C305.17 88.5826 306.08 90.082 307.062 91.5426C307.309 91.9112 307.869 91.4902 307.624 91.124Z" fill="#E6E6E6"/>
<path d="M298.333 70.1207C300.825 70.1207 302.846 68.1906 302.846 65.8096C302.846 63.4287 300.825 61.4985 298.333 61.4985C295.84 61.4985 293.82 63.4287 293.82 65.8096C293.82 68.1906 295.84 70.1207 298.333 70.1207Z" fill="#E6E6E6"/>
<path d="M293.769 94.9382V86.4679C293.77 85.6258 294.12 84.8184 294.744 84.2229C295.367 83.6274 296.212 83.2925 297.094 83.2915H317.784C318.666 83.2925 319.511 83.6274 320.134 84.2229C320.758 84.8184 321.108 85.6258 321.109 86.4679V94.9382C321.108 95.7804 320.758 96.5877 320.134 97.1832C319.511 97.7787 318.666 98.1136 317.784 98.1146H297.094C296.212 98.1136 295.367 97.7787 294.744 97.1832C294.12 96.5877 293.77 95.7804 293.769 94.9382Z" fill="#F2F2F2"/>
<path d="M317.045 40.9399H308.178C307.296 40.939 306.451 40.604 305.828 40.0085C305.204 39.413 304.854 38.6057 304.853 37.7635V3.17637C304.854 2.33424 305.204 1.52688 305.828 0.931396C306.451 0.335917 307.296 0.000949071 308.178 0H317.045C317.927 0.000949071 318.772 0.335917 319.395 0.931396C320.019 1.52688 320.369 2.33424 320.37 3.17637V37.7635C320.369 38.6057 320.019 39.413 319.395 40.0085C318.772 40.604 317.927 40.939 317.045 40.9399Z" fill="#F2F2F2"/>
<path d="M320.001 6.70569H305.222V9.52913H320.001V6.70569Z" fill="#CCCCCC"/>
<path d="M320.001 28.5873H305.222V31.4108H320.001V28.5873Z" fill="#CCCCCC"/>
<path d="M339.213 40.9399H330.346C329.464 40.939 328.619 40.604 327.996 40.0085C327.372 39.413 327.022 38.6057 327.021 37.7635V3.17637C327.022 2.33424 327.372 1.52688 327.996 0.931396C328.619 0.335917 329.464 0.000949071 330.346 0H339.213C340.095 0.000949071 340.94 0.335917 341.563 0.931396C342.187 1.52688 342.537 2.33424 342.538 3.17637V37.7635C342.537 38.6057 342.187 39.413 341.563 40.0085C340.94 40.604 340.095 40.939 339.213 40.9399Z" fill="#F2F2F2"/>
<path d="M342.169 6.70569H327.39V9.52913H342.169V6.70569Z" fill="#CCCCCC"/>
<path d="M342.169 28.5873H327.39V31.4108H342.169V28.5873Z" fill="#CCCCCC"/>
<path d="M361.381 40.9399H352.514C351.632 40.939 350.787 40.604 350.164 40.0085C349.54 39.413 349.19 38.6057 349.189 37.7635V3.17637C349.19 2.33424 349.54 1.52688 350.164 0.931396C350.787 0.335917 351.632 0.000949071 352.514 0H361.381C362.263 0.000949071 363.108 0.335917 363.731 0.931396C364.355 1.52688 364.705 2.33424 364.706 3.17637V37.7635C364.705 38.6057 364.355 39.413 363.731 40.0085C363.108 40.604 362.263 40.939 361.381 40.9399Z" fill="#F2F2F2"/>
<path d="M364.337 6.70569H349.558V9.52913H364.337V6.70569Z" fill="#CCCCCC"/>
<path d="M364.337 28.5873H349.558V31.4108H364.337V28.5873Z" fill="#CCCCCC"/>
<path d="M373.204 98.1146H364.337C363.455 98.1136 362.61 97.7787 361.987 97.1832C361.363 96.5877 361.013 95.7803 361.012 94.9382V60.3511C361.013 59.5089 361.363 58.7015 361.987 58.1061C362.61 57.5106 363.455 57.1756 364.337 57.1747H373.204C374.086 57.1756 374.931 57.5106 375.554 58.1061C376.178 58.7015 376.528 59.5089 376.529 60.3511V94.9382C376.528 95.7803 376.178 96.5877 375.554 97.1832C374.931 97.7787 374.086 98.1136 373.204 98.1146Z" fill="#F2F2F2"/>
<path d="M376.16 63.8804H361.381V66.7038H376.16V63.8804Z" fill="#CCCCCC"/>
<path d="M376.16 85.762H361.381V88.5855H376.16V85.762Z" fill="#CCCCCC"/>
<path d="M395.372 98.1146H386.505C385.623 98.1136 384.778 97.7787 384.154 97.1832C383.531 96.5877 383.18 95.7803 383.179 94.9382V60.3511C383.18 59.5089 383.531 58.7015 384.154 58.1061C384.778 57.5106 385.623 57.1756 386.505 57.1747H395.372C396.253 57.1756 397.099 57.5106 397.722 58.1061C398.345 58.7015 398.696 59.5089 398.697 60.3511V94.9382C398.696 95.7803 398.345 96.5877 397.722 97.1832C397.099 97.7787 396.253 98.1136 395.372 98.1146Z" fill="#F2F2F2"/>
<path d="M398.328 63.8804H383.549V66.7038H398.328V63.8804Z" fill="#CCCCCC"/>
<path d="M398.328 85.762H383.549V88.5855H398.328V85.762Z" fill="#CCCCCC"/>
<path d="M417.54 98.1146H408.673C407.791 98.1136 406.946 97.7787 406.322 97.1832C405.699 96.5877 405.348 95.7803 405.347 94.9382V60.3511C405.348 59.5089 405.699 58.7015 406.322 58.1061C406.946 57.5106 407.791 57.1756 408.673 57.1747H417.54C418.421 57.1756 419.267 57.5106 419.89 58.1061C420.513 58.7015 420.864 59.5089 420.865 60.3511V94.9382C420.864 95.7803 420.513 96.5877 419.89 97.1832C419.267 97.7787 418.421 98.1136 417.54 98.1146Z" fill="#F2F2F2"/>
<path d="M420.496 63.8804H405.717V66.7038H420.496V63.8804Z" fill="#CCCCCC"/>
<path d="M420.496 85.762H405.717V88.5855H420.496V85.762Z" fill="#CCCCCC"/>
<path d="M314.828 155.289H305.961C305.08 155.288 304.234 154.953 303.611 154.358C302.988 153.762 302.637 152.955 302.636 152.113V117.526C302.637 116.684 302.988 115.876 303.611 115.281C304.234 114.685 305.08 114.35 305.961 114.349H314.828C315.71 114.35 316.555 114.685 317.179 115.281C317.802 115.876 318.153 116.684 318.154 117.526V152.113C318.153 152.955 317.802 153.762 317.179 154.358C316.555 154.953 315.71 155.288 314.828 155.289Z" fill="#F2F2F2"/>
<path d="M317.784 121.055H303.005V123.879H317.784V121.055Z" fill="#CCCCCC"/>
<path d="M317.784 142.937H303.005V145.76H317.784V142.937Z" fill="#CCCCCC"/>
<path d="M336.996 155.289H328.129C327.248 155.288 326.402 154.953 325.779 154.358C325.156 153.762 324.805 152.955 324.804 152.113V117.526C324.805 116.684 325.156 115.876 325.779 115.281C326.402 114.685 327.248 114.35 328.129 114.349H336.996C337.878 114.35 338.723 114.685 339.346 115.281C339.97 115.876 340.321 116.684 340.322 117.526V152.113C340.321 152.955 339.97 153.762 339.346 154.358C338.723 154.953 337.878 155.288 336.996 155.289Z" fill="#F2F2F2"/>
<path d="M339.952 121.055H325.173V123.879H339.952V121.055Z" fill="#CCCCCC"/>
<path d="M339.952 142.937H325.173V145.76H339.952V142.937Z" fill="#CCCCCC"/>
<path d="M359.164 155.289H350.297C349.416 155.288 348.57 154.953 347.947 154.358C347.324 153.762 346.973 152.955 346.972 152.113V117.526C346.973 116.684 347.324 115.876 347.947 115.281C348.57 114.685 349.416 114.35 350.297 114.349H359.164C360.046 114.35 360.891 114.685 361.514 115.281C362.138 115.876 362.489 116.684 362.49 117.526V152.113C362.489 152.955 362.138 153.762 361.514 154.358C360.891 154.953 360.046 155.288 359.164 155.289Z" fill="#F2F2F2"/>
<path d="M362.12 121.055H347.341V123.879H362.12V121.055Z" fill="#CCCCCC"/>
<path d="M362.12 142.937H347.341V145.76H362.12V142.937Z" fill="#CCCCCC"/>
<path d="M383.549 40.9399H374.682C373.8 40.939 372.955 40.604 372.332 40.0085C371.708 39.413 371.358 38.6057 371.357 37.7635V3.17637C371.358 2.33424 371.708 1.52688 372.332 0.931396C372.955 0.335917 373.8 0.000949071 374.682 0H383.549C384.431 0.000949071 385.276 0.335917 385.899 0.931396C386.523 1.52688 386.873 2.33424 386.874 3.17637V37.7635C386.873 38.6057 386.523 39.413 385.899 40.0085C385.276 40.604 384.431 40.939 383.549 40.9399Z" fill="#F2F2F2"/>
<path d="M386.505 6.70569H371.726V9.52913H386.505V6.70569Z" fill="#CCCCCC"/>
<path d="M386.505 28.5873H371.726V31.4108H386.505V28.5873Z" fill="#CCCCCC"/>
<path d="M405.717 40.9399H396.85C395.968 40.939 395.123 40.604 394.5 40.0085C393.876 39.413 393.526 38.6057 393.525 37.7635V3.17637C393.526 2.33424 393.876 1.52688 394.5 0.931396C395.123 0.335917 395.968 0.000949071 396.85 0H405.717C406.599 0.000949071 407.444 0.335917 408.067 0.931396C408.691 1.52688 409.041 2.33424 409.042 3.17637V37.7635C409.041 38.6057 408.691 39.413 408.067 40.0085C407.444 40.604 406.599 40.939 405.717 40.9399Z" fill="#F2F2F2"/>
<path d="M408.673 6.70569H393.894V9.52913H408.673V6.70569Z" fill="#CCCCCC"/>
<path d="M408.673 28.5873H393.894V31.4108H408.673V28.5873Z" fill="#CCCCCC"/>
<path d="M427.885 40.9399H419.018C418.136 40.939 417.291 40.604 416.667 40.0085C416.044 39.413 415.693 38.6057 415.692 37.7635V3.17637C415.693 2.33424 416.044 1.52688 416.667 0.931396C417.291 0.335917 418.136 0.000949071 419.018 0H427.885C428.766 0.000949071 429.612 0.335917 430.235 0.931396C430.858 1.52688 431.209 2.33424 431.21 3.17637V37.7635C431.209 38.6057 430.858 39.413 430.235 40.0085C429.612 40.604 428.766 40.939 427.885 40.9399Z" fill="#F2F2F2"/>
<path d="M430.841 6.70569H416.062V9.52913H430.841V6.70569Z" fill="#CCCCCC"/>
<path d="M430.841 28.5873H416.062V31.4108H430.841V28.5873Z" fill="#CCCCCC"/>
<path d="M450.053 40.9399H441.186C440.304 40.939 439.459 40.604 438.835 40.0085C438.212 39.413 437.861 38.6057 437.86 37.7635V3.17637C437.861 2.33424 438.212 1.52688 438.835 0.931396C439.459 0.335917 440.304 0.000949071 441.186 0H450.053C450.934 0.000949071 451.779 0.335917 452.403 0.931396C453.026 1.52688 453.377 2.33424 453.378 3.17637V37.7635C453.377 38.6057 453.026 39.413 452.403 40.0085C451.779 40.604 450.934 40.939 450.053 40.9399Z" fill="#F2F2F2"/>
<path d="M453.009 6.70569H438.23V9.52913H453.009V6.70569Z" fill="#CCCCCC"/>
<path d="M453.009 28.5873H438.23V31.4108H453.009V28.5873Z" fill="#CCCCCC"/>
<path d="M483.261 41.9987H272.666C272.47 41.9987 272.282 41.9243 272.143 41.7919C272.005 41.6596 271.927 41.48 271.927 41.2928C271.927 41.1056 272.005 40.9261 272.143 40.7937C272.282 40.6613 272.47 40.587 272.666 40.587H483.261C483.457 40.587 483.645 40.6613 483.784 40.7937C483.922 40.9261 484 41.1056 484 41.2928C484 41.48 483.922 41.6596 483.784 41.7919C483.645 41.9243 483.457 41.9987 483.261 41.9987Z" fill="#CCCCCC"/>
<path d="M483.261 99.1734H272.666C272.47 99.1734 272.282 99.099 272.143 98.9667C272.005 98.8343 271.927 98.6548 271.927 98.4676C271.927 98.2803 272.005 98.1008 272.143 97.9684C272.282 97.836 272.47 97.7617 272.666 97.7617H483.261C483.457 97.7617 483.645 97.836 483.784 97.9684C483.922 98.1008 484 98.2803 484 98.4676C484 98.6548 483.922 98.8343 483.784 98.9667C483.645 99.099 483.457 99.1734 483.261 99.1734Z" fill="#CCCCCC"/>
<path d="M483.261 156.348H272.666C272.47 156.348 272.282 156.274 272.143 156.141C272.005 156.009 271.927 155.829 271.927 155.642C271.927 155.455 272.005 155.275 272.143 155.143C272.282 155.011 272.47 154.936 272.666 154.936H483.261C483.457 154.936 483.645 155.011 483.784 155.143C483.922 155.275 484 155.455 484 155.642C484 155.829 483.922 156.009 483.784 156.141C483.645 156.274 483.457 156.348 483.261 156.348Z" fill="#CCCCCC"/>
<path d="M429.735 148.529C430.648 139.137 433.169 129.952 437.199 121.341C438.322 118.945 439.558 116.601 440.907 114.31C440.974 114.191 440.991 114.05 440.952 113.919C440.914 113.788 440.823 113.677 440.7 113.608C440.577 113.539 440.431 113.519 440.293 113.551C440.154 113.583 440.034 113.666 439.958 113.781C435.052 122.125 431.615 131.182 429.785 140.591C429.275 143.219 428.893 145.865 428.637 148.529C428.571 149.201 429.67 149.197 429.735 148.529Z" fill="#E6E6E6"/>
<path d="M443.567 115.993C447.409 115.993 450.524 113.018 450.524 109.348C450.524 105.678 447.409 102.703 443.567 102.703C439.725 102.703 436.611 105.678 436.611 109.348C436.611 113.018 439.725 115.993 443.567 115.993Z" fill="#E6E6E6"/>
<path d="M430.447 148.706C431.039 142.613 432.675 136.654 435.289 131.068C436.017 129.513 436.819 127.993 437.694 126.506C437.738 126.429 437.749 126.338 437.724 126.253C437.699 126.168 437.64 126.095 437.56 126.051C437.481 126.006 437.386 125.993 437.296 126.014C437.206 126.035 437.128 126.088 437.079 126.163C433.896 131.576 431.667 137.452 430.479 143.556C430.149 145.26 429.9 146.977 429.734 148.706C429.692 149.142 430.405 149.139 430.447 148.706Z" fill="#E6E6E6"/>
<path d="M439.42 127.598C441.913 127.598 443.933 125.668 443.933 123.287C443.933 120.906 441.913 118.976 439.42 118.976C436.928 118.976 434.907 120.906 434.907 123.287C434.907 125.668 436.928 127.598 439.42 127.598Z" fill="#E6E6E6"/>
<path d="M429.547 148.299C426.091 143.147 423.544 137.487 422.009 131.547C421.582 129.893 421.235 128.223 420.968 126.537C420.953 126.45 420.903 126.372 420.828 126.319C420.754 126.267 420.661 126.244 420.569 126.256C420.478 126.268 420.394 126.313 420.337 126.382C420.28 126.452 420.253 126.54 420.262 126.627C421.238 132.766 423.263 138.709 426.257 144.219C427.094 145.757 428.004 147.257 428.986 148.717C429.233 149.086 429.793 148.665 429.547 148.299Z" fill="#E6E6E6"/>
<path d="M420.256 127.295C422.749 127.295 424.769 125.365 424.769 122.984C424.769 120.603 422.749 118.673 420.256 118.673C417.764 118.673 415.743 120.603 415.743 122.984C415.743 125.365 417.764 127.295 420.256 127.295Z" fill="#E6E6E6"/>
<path d="M415.692 152.113V143.643C415.693 142.8 416.044 141.993 416.667 141.398C417.291 140.802 418.136 140.467 419.018 140.466H439.708C440.589 140.467 441.434 140.802 442.058 141.398C442.681 141.993 443.032 142.8 443.033 143.643V152.113C443.032 152.955 442.681 153.762 442.058 154.358C441.434 154.953 440.589 155.288 439.708 155.289H419.018C418.136 155.288 417.291 154.953 416.667 154.358C416.044 153.762 415.693 152.955 415.692 152.113Z" fill="#F2F2F2"/>
<path d="M282.272 256.58H0.738931C0.542955 256.58 0.355015 256.506 0.216439 256.374C0.0778622 256.241 0 256.062 0 255.874C0 255.687 0.0778622 255.508 0.216439 255.375C0.355015 255.243 0.542955 255.169 0.738931 255.169H282.272C282.468 255.169 282.656 255.243 282.794 255.375C282.933 255.508 283.011 255.687 283.011 255.874C283.011 256.062 282.933 256.241 282.794 256.374C282.656 256.506 282.468 256.58 282.272 256.58Z" fill="#3F3D56"/>
<path d="M147.091 164.113C158.11 164.113 167.042 155.58 167.042 145.054C167.042 134.529 158.11 125.996 147.091 125.996C136.072 125.996 127.14 134.529 127.14 145.054C127.14 155.58 136.072 164.113 147.091 164.113Z" fill="#2F2E41"/>
<path d="M128.134 267.398L127.606 258.76L162.237 252.7L163.017 265.451L128.134 267.398Z" fill="#FFB8B8"/>
<path d="M129.812 252.445L130.832 269.106L119.85 269.719L118.189 242.568C119.631 242.487 121.075 242.679 122.44 243.132C123.805 243.584 125.062 244.289 126.142 245.207C127.221 246.124 128.101 247.235 128.731 248.477C129.36 249.719 129.728 251.067 129.812 252.445Z" fill="#2F2E41"/>
<path d="M143.197 267.319L137.444 274.004L107.713 255.992L116.202 246.125L143.197 267.319Z" fill="#FFB8B8"/>
<path d="M131.336 274.21L142.429 261.317L150.928 267.989L132.849 289C131.733 288.124 130.809 287.046 130.129 285.829C129.449 284.611 129.026 283.278 128.886 281.904C128.745 280.531 128.889 279.144 129.31 277.824C129.73 276.504 130.418 275.276 131.336 274.21Z" fill="#2F2E41"/>
<path d="M126.643 236.23L122.712 253.932C122.622 254.34 122.627 254.762 122.727 255.167C122.827 255.573 123.02 255.952 123.292 256.278C123.564 256.604 123.908 256.868 124.299 257.052C124.69 257.236 125.12 257.335 125.556 257.341L164.2 257.937C164.636 257.944 165.068 257.858 165.465 257.687C165.862 257.516 166.214 257.263 166.497 256.946C166.78 256.629 166.986 256.257 167.1 255.855C167.214 255.454 167.234 255.033 167.159 254.623L163.778 236.326C163.658 235.672 163.3 235.08 162.767 234.653C162.235 234.227 161.563 233.993 160.868 233.993H129.534C128.857 233.993 128.2 234.215 127.674 234.622C127.147 235.03 126.784 235.597 126.643 236.23Z" fill="#2F2E41"/>
<path d="M133.051 242.463C133.051 242.463 95.3658 219.876 87.9765 231.875C84.2818 237.875 86.1292 243.698 88.9001 248.022C91.4716 251.958 95.1629 255.114 99.5426 257.121L130.096 271.403L141.18 260.11L133.79 253.757L133.051 242.463Z" fill="#2F2E41"/>
<path d="M152.263 238.934C152.263 238.934 201.033 225.522 191.427 250.933C181.821 276.344 145.613 266.462 145.613 266.462L141.918 255.874L154.48 247.404L152.263 238.934Z" fill="#2F2E41"/>
<path d="M147.341 166.743C157.364 166.743 165.49 158.981 165.49 149.406C165.49 139.831 157.364 132.07 147.341 132.07C137.318 132.07 129.192 139.831 129.192 149.406C129.192 158.981 137.318 166.743 147.341 166.743Z" fill="#BD6C33"/>
<path d="M148.292 243.735C140.751 243.626 133.248 242.682 125.934 240.921L125.718 240.865L115.591 196.364C114.679 192.453 115.299 188.36 117.332 184.856C119.365 181.352 122.671 178.68 126.625 177.346C138.839 173.159 152.152 172.905 164.532 176.623H164.532C168.686 177.901 172.182 180.629 174.324 184.262C176.465 187.894 177.094 192.165 176.085 196.221L164.773 240.828L164.614 240.9C159.913 243.027 154.035 243.735 148.292 243.735Z" fill="#CCCCCC"/>
<path d="M134.688 245.192C135.056 244.216 135.643 243.328 136.409 242.592C137.175 241.856 138.1 241.289 139.12 240.932C140.14 240.574 141.229 240.435 142.312 240.523C143.394 240.611 144.443 240.925 145.385 241.442L165.326 224.908L167.13 237.902L147.917 251.611C146.902 253.065 145.365 254.112 143.595 254.555C141.826 254.998 139.948 254.806 138.318 254.014C136.687 253.223 135.417 251.888 134.748 250.262C134.079 248.636 134.058 246.832 134.688 245.192Z" fill="#FFB8B8"/>
<path d="M153.707 248.799C153.382 248.798 153.06 248.753 152.749 248.664C152.244 248.524 151.782 248.27 151.401 247.924C151.021 247.578 150.732 247.15 150.56 246.676L148.153 240.162C147.928 239.56 147.899 238.907 148.071 238.289C148.243 237.671 148.607 237.118 149.115 236.702L176.285 221.12L165.575 175.479L165.847 175.416C165.958 175.39 176.931 173.004 181.428 184.458C184.577 192.481 196.23 209.924 195.408 221.711C195.251 224.069 194.268 226.308 192.616 228.066C190.964 229.824 188.74 230.999 186.303 231.401L155.72 248.139C155.144 248.566 154.436 248.798 153.707 248.799Z" fill="#CCCCCC"/>
<path d="M156.754 243.644C156.386 242.667 155.799 241.78 155.033 241.044C154.267 240.308 153.342 239.741 152.322 239.384C151.302 239.026 150.213 238.886 149.131 238.975C148.048 239.063 146.999 239.377 146.058 239.894L126.116 223.36L124.312 236.353L143.525 250.063C144.54 251.516 146.078 252.564 147.847 253.007C149.616 253.45 151.494 253.257 153.124 252.466C154.755 251.675 156.025 250.34 156.694 248.714C157.363 247.088 157.384 245.284 156.754 243.644Z" fill="#FFB8B8"/>
<path d="M139.736 248.799C139.007 248.798 138.299 248.565 137.723 248.139L104.924 232.813C102.487 232.411 100.262 231.236 98.6103 229.478C96.9582 227.719 95.9747 225.481 95.8185 223.123C94.9964 211.336 108.866 192.481 112.015 184.458C116.512 173.004 127.485 175.389 127.596 175.416L127.868 175.479L114.941 222.532L144.328 236.702C144.836 237.118 145.2 237.671 145.372 238.289C145.544 238.907 145.515 239.56 145.29 240.162L142.883 246.676C142.711 247.15 142.422 247.578 142.042 247.924C141.661 248.27 141.199 248.524 140.694 248.664C140.383 248.753 140.061 248.798 139.736 248.799Z" fill="#CCCCCC"/>
<path d="M178.865 255.874H113.1C111.729 255.873 110.414 255.352 109.444 254.426C108.475 253.499 107.929 252.243 107.928 250.933V216.346C107.929 215.036 108.475 213.78 109.444 212.854C110.414 211.928 111.729 211.407 113.1 211.405H178.865C180.236 211.407 181.551 211.928 182.521 212.854C183.491 213.78 184.036 215.036 184.038 216.346V250.933C184.036 252.243 183.491 253.499 182.521 254.426C181.551 255.352 180.236 255.873 178.865 255.874Z" fill="black"/>
<path d="M145.983 237.875C148.431 237.875 150.416 235.979 150.416 233.64C150.416 231.301 148.431 229.405 145.983 229.405C143.534 229.405 141.549 231.301 141.549 233.64C141.549 235.979 143.534 237.875 145.983 237.875Z" fill="white"/>
<path d="M129.01 148.701C127.935 146.094 129.7 142.988 132.318 141.726C134.936 140.463 138.095 140.704 140.895 141.536C143.249 142.235 145.454 143.319 147.75 144.174C150.014 145.133 152.486 145.553 154.957 145.4C157.406 145.136 159.844 143.824 160.846 141.674C161.884 139.444 161.178 136.723 159.578 134.821C157.876 132.981 155.673 131.629 153.215 130.914C147.815 129.097 141.578 129.043 136.565 131.685C131.552 134.326 128.145 139.951 129.181 145.329" fill="#2F2E41"/>
<path d="M24.1354 248.335C25.0483 238.943 27.5697 229.758 31.599 221.147C32.7219 218.751 33.958 216.407 35.307 214.116C35.3747 213.996 35.391 213.856 35.3525 213.725C35.314 213.594 35.2237 213.482 35.1007 213.414C34.9776 213.345 34.8315 213.324 34.693 213.357C34.5546 213.389 34.4347 213.471 34.3586 213.586C29.4526 221.93 26.0156 230.988 24.1851 240.397C23.6759 243.024 23.2932 245.67 23.037 248.335C22.9719 249.007 24.0707 249.003 24.1354 248.335Z" fill="#E6E6E6"/>
<path d="M37.9673 215.799C41.8094 215.799 44.9239 212.824 44.9239 209.154C44.9239 205.483 41.8094 202.508 37.9673 202.508C34.1253 202.508 31.0107 205.483 31.0107 209.154C31.0107 212.824 34.1253 215.799 37.9673 215.799Z" fill="#716E87"/>
<path d="M24.8469 248.511C25.4392 242.418 27.075 236.46 29.6889 230.873C30.4175 229.319 31.2193 227.798 32.0945 226.312C32.1384 226.234 32.149 226.143 32.124 226.058C32.099 225.973 32.0404 225.901 31.9606 225.856C31.8808 225.812 31.786 225.798 31.6962 225.819C31.6064 225.84 31.5286 225.894 31.4792 225.968C28.2965 231.382 26.0668 237.257 24.8792 243.361C24.5489 245.066 24.3006 246.783 24.1344 248.511C24.0921 248.947 24.805 248.944 24.847 248.511H24.8469Z" fill="#E6E6E6"/>
<path d="M33.8204 227.404C36.3129 227.404 38.3335 225.474 38.3335 223.093C38.3335 220.712 36.3129 218.781 33.8204 218.781C31.3279 218.781 29.3074 220.712 29.3074 223.093C29.3074 225.474 31.3279 227.404 33.8204 227.404Z" fill="#716E87"/>
<path d="M23.9476 248.104C20.4915 242.952 17.9446 237.293 16.4087 231.352C15.9821 229.698 15.6354 228.028 15.3685 226.342C15.3531 226.255 15.3029 226.177 15.2284 226.125C15.154 226.073 15.0611 226.05 14.9695 226.062C14.8779 226.073 14.7946 226.119 14.7373 226.188C14.6799 226.257 14.653 226.345 14.6622 226.433C15.638 232.571 17.6633 238.514 20.6572 244.025C21.4942 245.563 22.4037 247.062 23.3857 248.523C23.6331 248.892 24.1934 248.471 23.9476 248.104Z" fill="#E6E6E6"/>
<path d="M14.6564 227.101C17.1489 227.101 19.1694 225.171 19.1694 222.79C19.1694 220.409 17.1489 218.479 14.6564 218.479C12.1639 218.479 10.1433 220.409 10.1433 222.79C10.1433 225.171 12.1639 227.101 14.6564 227.101Z" fill="#716E87"/>
<path d="M10.0928 251.919V243.448C10.0938 242.606 10.4444 241.799 11.0678 241.203C11.6912 240.608 12.5364 240.273 13.418 240.272H34.108C34.9896 240.273 35.8348 240.608 36.4582 241.203C37.0816 241.799 37.4322 242.606 37.4332 243.448V251.919C37.4322 252.761 37.0816 253.568 36.4582 254.164C35.8348 254.759 34.9896 255.094 34.108 255.095H13.418C12.5364 255.094 11.6912 254.759 11.0678 254.164C10.4444 253.568 10.0938 252.761 10.0928 251.919Z" fill="#F2F2F2"/>
<path d="M232.326 261.804C232.326 266.447 228.387 268.557 223.527 268.557C218.667 268.557 214.727 266.447 214.727 261.804C214.727 257.162 216.682 251.745 223.527 253.613C230.371 250.811 232.326 257.162 232.326 261.804Z" fill="#FF4F6D"/>
<path d="M223.098 255.787C222.756 255.788 222.425 255.669 222.168 255.454C221.911 255.238 221.745 254.941 221.701 254.616C221.409 252.3 219.803 247.764 219.127 245.921L219.126 245.921C219.058 245.738 219.037 245.541 219.065 245.349C219.094 245.156 219.17 244.973 219.289 244.815C219.403 244.674 219.546 244.557 219.71 244.473C219.874 244.388 220.055 244.338 220.241 244.325C220.427 244.312 220.614 244.337 220.789 244.398C220.964 244.459 221.124 244.555 221.257 244.679C221.376 244.799 221.469 244.94 221.528 245.095C221.588 245.25 221.613 245.415 221.603 245.58C221.471 247.945 223.275 251.767 224.363 253.835C224.466 254.03 224.517 254.245 224.513 254.464C224.509 254.682 224.45 254.896 224.34 255.087C224.23 255.279 224.074 255.442 223.883 255.562C223.693 255.683 223.475 255.758 223.247 255.78C223.198 255.785 223.148 255.788 223.098 255.787Z" fill="#3F3D56"/>
<path d="M229.61 250.57C232.664 248.182 230.268 243.294 226.444 244.233C225.93 244.35 225.456 244.592 225.067 244.934C222.722 247.051 222.359 252.465 222.359 252.465C222.359 252.465 226.5 253.001 229.61 250.57Z" fill="#3F3D56"/>
</g>
<defs>
<clipPath id="clip0">
<rect width="484" height="292" fill="white"/>
</clipPath>
</defs>
</svg>
