<svg width="38" height="48" viewBox="0 0 38 48" fill="none" xmlns="http://www.w3.org/2000/svg">
<g clip-path="url(#clip0)">
<path d="M17.0474 47.0316C2.66891 27.2842 0 25.2575 0 18C0 8.05884 8.50656 0 19 0C29.4934 0 38 8.05884 38 18C38 25.2575 35.3311 27.2842 20.9526 47.0316C20.0091 48.3229 17.9908 48.3228 17.0474 47.0316ZM19 25.5C23.3723 25.5 26.9167 22.1422 26.9167 18C26.9167 13.8578 23.3723 10.5 19 10.5C14.6277 10.5 11.0833 13.8578 11.0833 18C11.0833 22.1422 14.6277 25.5 19 25.5Z" fill="white"/>
</g>
<defs>
<clipPath id="clip0">
<rect width="38" height="48" fill="white"/>
</clipPath>
</defs>
</svg>
