<svg width="85" height="73" viewBox="0 0 85 73" fill="none" xmlns="http://www.w3.org/2000/svg">
<g clip-path="url(#clip0)">
<path d="M18.0648 34.7299L40.2755 15.58L32.9941 9.30105L22.8146 18.079C22.6932 18.1839 22.549 18.2671 22.3903 18.3239C22.2316 18.3807 22.0614 18.4099 21.8896 18.4099C21.7177 18.4099 21.5476 18.3807 21.3888 18.3239C21.2301 18.2671 21.0859 18.1839 20.9645 18.079L19.1145 16.4837C18.6028 16.0425 18.6028 15.3281 19.1145 14.8883L29.294 6.11035L23.7421 1.32145C21.6973 -0.441836 18.3833 -0.441836 16.3385 1.32145L1.53305 14.0885C-0.510106 15.8518 -0.511757 18.7095 1.53305 20.4728L18.0648 34.7299ZM82.1768 18.1075C85.2729 15.4377 85.2712 11.1099 82.1768 8.44004L74.7089 2.00029C71.6128 -0.66954 66.5923 -0.66954 63.4946 2.00029L55.8996 8.5482L74.5818 24.6583L82.1768 18.1075ZM52.1648 11.7702L3.14877 54.0321L0.0526702 69.3224C-0.364874 71.3845 1.71789 73.1806 4.11093 72.8177L21.8442 70.1364L70.847 27.8788L52.1648 11.7702ZM82.9657 52.3912L77.4138 47.6037L67.2343 56.3817C66.7227 56.8229 65.8942 56.8229 65.3843 56.3817L63.5342 54.7863C63.0242 54.3452 63.0242 53.6308 63.5342 53.191L73.7137 44.413L66.429 38.1312L44.2183 57.2811L60.7566 71.5411C62.8014 73.3044 66.1154 73.3044 68.1602 71.5411L82.9657 58.7754C85.0105 57.0122 85.0105 54.1545 82.9657 52.3912Z" fill="#D62828"/>
</g>
<defs>
<clipPath id="clip0">
<rect width="84.499" height="72.8653" fill="white"/>
</clipPath>
</defs>
</svg>
