<svg width="32" height="38" viewBox="0 0 32 38" fill="none" xmlns="http://www.w3.org/2000/svg">
<g clip-path="url(#clip0)">
<path d="M31.0869 26.8531L24.0869 23.2906C23.7878 23.1393 23.4555 23.1074 23.1399 23.1998C22.8243 23.2921 22.5425 23.5037 22.3369 23.8027L19.2369 28.3004C14.3717 25.5764 10.4564 20.927 8.1625 15.1496L11.95 11.4683C12.2023 11.2247 12.3809 10.89 12.4587 10.515C12.5365 10.1401 12.5093 9.74519 12.3812 9.3902L9.38125 1.07771C9.2407 0.69504 8.9921 0.382607 8.67834 0.194279C8.36458 0.00595148 8.00532 -0.046466 7.6625 0.0460653L1.1625 1.82731C0.831981 1.91795 0.537091 2.13894 0.325959 2.45423C0.114828 2.76951 -7.61381e-05 3.16047 3.78513e-08 3.56329C3.78513e-08 22.6004 12.9937 38.0008 29 38.0008C29.3393 38.001 29.6687 37.8647 29.9343 37.6139C30.2 37.3632 30.3861 37.0129 30.4625 36.6203L31.9625 28.9016C32.0399 28.4925 31.9948 28.0642 31.835 27.6903C31.6752 27.3164 31.4106 27.0204 31.0869 26.8531V26.8531Z" fill="white"/>
</g>
<defs>
<clipPath id="clip0">
<rect width="32" height="38" fill="white"/>
</clipPath>
</defs>
</svg>
