<svg width="84" height="81" viewBox="0 0 84 81" fill="none" xmlns="http://www.w3.org/2000/svg">
<g clip-path="url(#clip0)">
<path d="M40.5101 20.5916L28.3431 25.0481V6.82699L18.4393 36.9004L28.3431 33.0761V53.6676L40.5101 20.5916ZM25.4461 5.30988L25.2108 6.05263L22.4587 14.4125C15.1621 16.862 9.98391 23.041 9.98391 30.2631C9.98391 38.5282 16.1942 45.4184 25.084 46.9355V55.406C10.9797 53.7466 0.56897 43.0479 0.56897 30.2789C0.56897 17.5573 11.3962 7.01662 25.4461 5.30988ZM81.8272 75.9817C79.7993 77.7517 77.6448 77.9255 76.6489 77.641C75.6712 77.3566 71.7423 74.4962 65.7131 70.6244C59.6839 66.7368 59.6296 64.9827 57.9277 61.664C56.2258 58.3612 52.4236 54.9319 47.5169 53.3832L45.7607 51.0601C41.2886 53.7308 36.1647 55.3111 31.0408 55.5956L31.421 54.5526L34.2998 46.73C42.7189 44.8494 48.9473 38.1963 48.9473 30.2631C48.9473 21.6504 41.9947 14.1281 31.5659 13.3379V5.10444C46.6298 5.9104 58.5071 16.8778 58.5071 30.2789C58.5071 35.5888 56.4792 40.5036 53.2564 44.565L55.8999 46.0821C57.6742 50.3647 61.6031 53.6676 65.3872 55.1531C69.1713 56.6386 71.2172 56.686 75.6712 61.9485C80.1252 67.1951 83.4024 70.6244 83.7283 71.4778C84.0542 72.3312 83.855 74.2117 81.8272 75.9817ZM80.0347 73.1529C80.0347 72.4576 79.3829 71.8887 78.5863 71.8887C77.7896 71.8887 77.1378 72.4576 77.1378 73.1529C77.1378 73.8483 77.7896 74.4172 78.5863 74.4172C79.3829 74.4172 80.0347 73.8483 80.0347 73.1529Z" fill="#D62828"/>
</g>
<defs>
<clipPath id="clip0">
<rect width="83.286" height="80.9123" fill="white" transform="translate(0.56897)"/>
</clipPath>
</defs>
</svg>
